<?xml version="1.0" standalone="no"?>
<!DOCTYPE svg PUBLIC "-//W3C//DTD SVG 20010904//EN"
 "http://www.w3.org/TR/2001/REC-SVG-20010904/DTD/svg10.dtd">
<svg version="1.0" xmlns="http://www.w3.org/2000/svg"
 width="2048.000000pt" height="2048.000000pt" viewBox="0 0 2048.000000 2048.000000"
 preserveAspectRatio="xMidYMid meet">

<g transform="translate(0.000000,2048.000000) scale(0.100000,-0.100000)"
fill="#000000" stroke="none">
<path d="M2571 18274 c-95 -20 -168 -60 -237 -128 -63 -63 -106 -139 -123
-217 -6 -28 -11 -1103 -12 -2924 -3 -3220 -10 -2929 69 -3051 71 -110 175
-181 296 -203 77 -14 5675 -15 5783 -1 143 19 276 118 344 257 l34 68 3 2910
c3 3259 10 2977 -69 3095 -68 101 -170 169 -296 195 -100 22 -5695 21 -5792
-1z"/>
<path d="M12162 18280 c-159 -14 -303 -116 -375 -267 l-32 -68 0 -2930 0
-2930 22 -55 c46 -113 149 -213 271 -262 l57 -23 2745 -3 c1577 -1 2790 2
2851 7 82 7 119 15 165 37 77 36 170 129 214 215 21 41 39 65 47 62 6 -3 41
-5 77 -6 l64 -2 6 35 c11 65 6 5792 -5 5839 -43 189 -211 330 -415 351 -103
10 -5568 10 -5692 0z"/>
<path d="M12065 8716 c-113 -36 -220 -128 -271 -233 l-29 -58 0 -2945 0 -2945
32 -68 c38 -79 122 -168 199 -209 116 -62 -97 -58 2939 -58 3025 0 2819 -4
2937 56 66 33 158 125 191 190 61 122 57 -119 57 3035 0 2370 -3 2883 -14
2924 -41 155 -154 271 -301 309 -53 14 -361 16 -2880 15 -2249 0 -2828 -3
-2860 -13z"/>
</g>
</svg>
